<?xml version="1.0" encoding="UTF-8"?>
<svg id="Layer_5" data-name="Layer 5" xmlns="http://www.w3.org/2000/svg" width="200" height="160" viewBox="0 0 200 160">
  <defs>
    <style>
      .cls-1 {
        letter-spacing: -.05em;
      }

      .cls-2 {
        letter-spacing: 0em;
      }

      .cls-3 {
        letter-spacing: -.02em;
      }

      .cls-4 {
        letter-spacing: 0em;
      }

      .cls-5 {
        stroke-width: .8px;
      }

      .cls-5, .cls-6, .cls-7 {
        fill: none;
        stroke: #1e1e1e;
        stroke-linecap: round;
        stroke-linejoin: round;
      }

      .cls-8 {
        letter-spacing: 0em;
      }

      .cls-9 {
        letter-spacing: 0em;
      }

      .cls-10 {
        font-family: SourceSans3-Regular, 'Source Sans 3';
        font-size: 14px;
      }

      .cls-10, .cls-11 {
        fill: #1d1d1d;
      }

      .cls-6 {
        stroke-width: 1.2px;
      }

      .cls-12 {
        letter-spacing: 0em;
      }

      .cls-7 {
        stroke-width: .3px;
      }

      .cls-13 {
        letter-spacing: -.02em;
      }

      .cls-11 {
        font-family: DMSerifDisplay-Regular, 'DM Serif Display';
        font-size: 70px;
      }
    </style>
  </defs>
  <g>
    <path class="cls-7" d="M130.54,59.8s0,0,0,0"/>
    <path class="cls-6" d="M119.62,106.05s.02,0,.02,0"/>
    <path class="cls-6" d="M143.96,104.5s.2,.97,.22,1.69c0,.1,0,.2,.02,.3h0"/>
    <path class="cls-6" d="M144.21,106.49c0,.52,.02,1.02,.1,1.42,.37,2.02-.52,3.73-1.49,5.45-.97,1.77-2.14,3.58-3.96,4.48-1.22,.62-2.81,.6-3.86,1.47-.12,.1-.2,.2-.3,.3"/>
    <line class="cls-7" x1="134.09" y1="153.22" x2="134.09" y2="153.22"/>
    <path class="cls-6" d="M177.71,110.18c.8,.96,1.18,1.69,1.61,2.87,.47,1.3,1.23,2.35,1.78,3.58,.41,.92,.9,1.99,1.05,3.01"/>
    <path class="cls-6" d="M182.15,119.64s.01,.07,.02,.1c.19,1.5-.29,3.11-.47,4.57-.28,2.19-1.67,4.08-2.06,6.26-.42,2.31-1.23,3.97-2.68,5.88-.88,1.15-1.12,2.41-1.87,3.62-.52,.82-1.29,1.04-2.11,1.49-.96,.53-1.32,1.41-2.16,2.01-.71,.51-1.56,.59-2.41,.6-.3,0-.6,0-.9,.02"/>
    <path class="cls-6" d="M167.51,144.19c-1.09,.04-2.18,.14-3.23,.4-1.77,.44-2.93,1.15-4.58,1.89-2.15,.96-4.48,2.51-6.21,4.1-1.09,1-1.88,2.14-3.18,2.92-1.72,1.04-3.88,1.31-5.7,2.18-1.32,.63-2.4,.85-3.83,1.15-.99,.21-1.97,.55-2.98,.24-1.56-.48-2.65-2.5-3.72-3.85"/>
    <path class="cls-6" d="M162.6,112.39c1.82,.07,3.56,.17,5.43,.4,2.29,.3,4.26,.3,6.37-.72,1.61-.78,3.19-1.44,4.14-3.05,.88-1.49,1.35-2.56,2.52-3.85,2.38-2.62,2.23-6.79,1.76-10.12-.32-2.26-1.31-4.35-1.59-6.65-.43-3.51-1.48-6.38-2.82-9.62-1.54-3.73-2.89-7.39-6.6-9.54-2.56-1.48-5.81-2.99-8.8-2.85-3.22,.16-8.09,1.22-10.82,3.81"/>
    <path class="cls-6" d="M152.19,70.2s0,0,0,0"/>
    <line class="cls-6" x1="144.21" y1="106.49" x2="144.21" y2="106.49"/>
    <path class="cls-6" d="M162.6,112.39c-.32,0-.65-.03-1-.05-2.14-.08-4.11-.87-6.12-1.52-1.64-.55-3.03-1.04-4.38-1.83-1.64-.97-3.41-1.76-5.3-2.07-.01,0-.02,0-.03,0-.57-.1-1.09-.2-1.57-.42"/>
    <path class="cls-5" d="M134.71,115.42c.9-.17,1.59-.92,2.36-1.32,.37-.22,.77-.35,1.19-.42,.4-.08,.75-.08,1-.4,.17-.22,.27-.52,.42-.77s.32-.35,.27-.67c-.05-.2-.25-.32-.15-.57,.12-.3,.6-.52,.82-.75,.82-.85,1-1.77,1.12-2.89,.05-.3,.15-.62,.1-.92-.07-.37-.4-.55-.62-.82-.17-.22-.3-.47-.37-.75-.2-.55-.3-1.14-.7-1.59-.37-.42-.95-.75-1.29-1.24-.17-.25-.2-.57-.35-.82-.5-.77-1.82-.67-2.56-.8-.47-.05-.95-.17-1.39-.37-.2-.08-.42-.25-.62-.3-.35-.1-.8-.02-1.37,.08-.42-.03-1.34-.03-1.57,.4-.25,.45-.05,.92-.12,1.39-.02,.17-.1,.35-.27,.52-.5,.55-1.39,.32-1.84,.97-.15,.2-.12,.37-.22,.6-.15,.37-.57,.62-.8,.92-.3,.45-.9,1.29-.8,1.84,.05,.37,.35,.65,.4,1.07,.07,.57-.02,1.22-.02,1.82,0,.92,.47,1.57,.92,2.34,.4,.7,1.32,.95,1.89,1.54,.35,.35,.55,.77,.9,1.12,.55,.55,1.05,.77,1.82,.8,.6,.05,1.32,.1,1.87,0Z"/>
    <path class="cls-6" d="M102.45,138.97h0c.33,.12,.67,.3,1.25,.44,1.28,.31,2.69-.18,3.95,.19,1.08,.31,2.25,.8,3.22,1.38,1.19,.71,2.2,1.78,3.21,2.73,1.19,1.13,2.47,2.02,3.71,3.09,.68,.59,1.35,1.44,1.85,2.21,.29,.44,.4,.96,.79,1.32,.62,.59,1.71,.83,2.44,1.29,.77,.48,1.41,1.19,2.13,1.71,1.24,.89,2.72,.41,4.17,.36,1.56-.05,3.02,.59,4.51-.19,.16-.08,.29-.18,.41-.28"/>
    <polyline class="cls-7" points="134.09 153.22 134.09 153.22 134.09 153.22"/>
    <path class="cls-6" d="M119.62,106.05c-.07,.04-.13,.07-.2,.09-.77,.32-1.47,.45-2.34,.57-1.05,.17-1.74,.95-2.76,1.02-1.52,.12-1.29-.47-2.69-.8-1.37-.32-3.06-.17-4.28,.42-1.34,.67-2.34,.27-3.73,.5-1.74,.32-2.66,2.17-3.71,3.46-1.14,1.44-2.41,2.81-3.68,4.16-.85,.9-1.99,1.44-2.66,2.46-1.09,1.62-1.59,3.91-2.21,5.75-1.05,3.09-.87,5.45,1,8.26,.87,1.29,2.16,1.89,3.16,3.06,.65,.75,1.05,1.77,1.62,2.59,.95,1.37,2.19,1.97,3.76,1.44,.77-.25,1.17-.22,1.57-.08"/>
    <path class="cls-7" d="M134.09,153.22s0,0,0,0"/>
    <path class="cls-6" d="M134.71,119.6c.67,.35,1.22,.95,1.57,1.64v.02c.57,1.12,.8,2.39,.62,3.63-.27,1.99-1.47,3.93-2.56,5.58-2.14,3.23-5.03,6.52-4.83,10.7,.1,1.99,1.67,2.64,2.96,3.86,.7,.65,1.59,1.62,1.99,2.46,.32,.67,.32,1.69,.37,2.46,.05,1.14,.15,2.46-.74,3.25"/>
    <path class="cls-6" d="M134.71,119.6c-.45-.25-.95-.4-1.47-.4h-.1c-3.04-.27-5.87-2.99-7.29-5.45-.85-1.52-1.69-3.14-1.72-4.88,0-1.07-1.19-1.99-.52-3.18,.65-.45,1.07-1.74,1.44-2.24,.75-1.05,1.97-1.64,2.94-2.46,.42-.35,.6-.87,.87-1.32-1.39-1.89-1.67-3.78-2.26-6.05-1.09-4.08-3.21-7.24-5.77-10.58-2.09-2.74-3.04-6.1-2.76-9.53,.3-3.96,4.78-9.28,8.01-11.5,1.34-.92,2.91-1.57,4.45-2.22,0,0,0,0,0,0-1.74-.51-2.83-.15-4.61,.11-.67,.1-1.4,.06-2.12,0-1.13-.08-2.27-.18-3.24,.17-1.42,.52-2.75,1.77-3.86,2.75-.95,.83-2.03,1.58-2.99,2.45-2.67,2.41-3.89,5.71-6.57,8.09-1.11,.99-2.07,2.09-3.22,3.03-1.75,1.42-2.59,2.63-3.56,4.64-.08,.17-.16,.34-.23,.51-.65,1.56-.92,3.23-1.47,4.82-.95,2.75-1.77,4.91-1.12,7.78,.36,1.6,.5,3.6,1.21,5.11,.5,1.06,1.55,1.72,2.53,2.35,1.73,1.1,3.65,2.06,5.59,2.66,3,.92,6.2,1.68,9.36,1.66,.83,0,1.88,.12,2.95,.2,.15,.01,.3-.02,.44-.08,0,0,.02,0,.03-.01,1.14-.52,2.81-1.27,3.96-.35"/>
    <path class="cls-6" d="M130.53,59.8c.82-.32,1.61-.67,2.38-1.02,1.29-.6,3.04-1.32,4.5-1.29,1.67,0,4.43,1.02,6,1.72,2.61,1.12,4.68,2.89,6.17,5.18,.17,.22,.3,.45,.45,.7,.98,1.68,1.55,3.39,2.16,5.12"/>
    <path class="cls-6" d="M143.96,104.5c.92-.27,1.74-.65,2.39-1.12,.05-.03,.1-.07,.12-.1,1.17-.9,1.79-2.29,2.86-3.26,1.34-1.22,2.94-1.97,4.16-3.41,1.89-2.26,3.38-5.55,3.28-8.56-.1-2.36-.95-4.5-1.47-6.77-.32-1.37-.3-2.79-.52-4.18-.2-1.44-.87-2.59-1.44-3.88-.45-1.02-.81-2.02-1.16-3.02"/>
    <path class="cls-6" d="M132.37,98.17c1.25-.25,2.54-.37,3.8-.26"/>
    <path class="cls-6" d="M128.86,99.67c.1-.15,.22-.27,.35-.4,.67-.57,1.77-.8,2.61-1,.18-.04,.37-.07,.55-.11"/>
    <path class="cls-6" d="M141.14,100.1c.49,.37,.96,.76,1.33,1.26,.65,.9,.72,2.36,1.49,3.14"/>
    <path class="cls-6" d="M136.17,97.91c1.26,.12,2.49,.47,3.59,1.21,.07,.05,.17,.12,.25,.17,.37,.27,.76,.53,1.13,.81"/>
  </g>
  <g>
    <text class="cls-11" transform="translate(.04 49.31)"><tspan class="cls-1" x="0" y="0">F</tspan><tspan class="cls-8" x="34.09" y="0">or</tspan><tspan class="cls-4" x="103.11" y="0">m</tspan><tspan class="cls-2" x="163.66" y="0">a</tspan><tspan class="cls-3" x="0" y="57.74">R</tspan><tspan class="cls-8" x="42.84" y="57.74">o</tspan></text>
    <text class="cls-10" transform="translate(1.09 122.04)"><tspan class="cls-13" x="0" y="0">P</tspan><tspan class="cls-12" x="7.59" y="0">ella A</tspan><tspan class="cls-9" x="39.13" y="0">r</tspan><tspan x="43.85" y="0">endt</tspan></text>
  </g>
</svg>